# xmcd
#
# Track frame offsets:
#	150
#	11998
#	35158
#	42558
#	68006
#	88638
#	100046
#	119878
#	141438
#	161766
#	188822
#	204070
#	221742
#
# Disc length: 3157 seconds
#
# Revision: 0
# Processed by: cddbd v1.5.2PL0 Copyright (c) Steve Scherf et al.
# Submitted via: dBpowerAMP V4.0
#
DISCID=c40c530d
DTITLE=Mike Wells - Keeping The Focus - Disc 3
DYEAR=1900
DGENRE=
TTITLE0=KTF - 03-01
TTITLE1=KTF - 03-02
TTITLE2=KTF - 03-03
TTITLE3=KTF - 03-04
TTITLE4=KTF - 03-05
TTITLE5=KTF - 03-06
TTITLE6=KTF - 03-07
TTITLE7=KTF - 03-08
TTITLE8=KTF - 03-09
TTITLE9=KTF - 03-10
TTITLE10=KTF - 03-11
TTITLE11=KTF - 03-12
TTITLE12=KTF - 03-13
EXTD=free download at http://gracehead.com
EXTT0=
EXTT1=
EXTT2=
EXTT3=
EXTT4=
EXTT5=
EXTT6=
EXTT7=
EXTT8=
EXTT9=
EXTT10=
EXTT11=
EXTT12=
PLAYORDER=
